<?xml version="1.0" encoding="utf-8"?>
<!-- Generator: Adobe Illustrator 25.3.1, SVG Export Plug-In . SVG Version: 6.00 Build 0)  -->
<svg version="1.1" id="DilasDonuts_-_Logo" xmlns="http://www.w3.org/2000/svg" xmlns:xlink="http://www.w3.org/1999/xlink" x="0px"
	 y="0px" viewBox="0 0 135.09 103.9" style="enable-background:new 0 0 135.09 103.9;" xml:space="preserve">
<style type="text/css">
	.st0{fill:#F8CB88;}
	.st1{fill:#F18B96;}
	.st2{fill:#FFFFFF;}
	.st3{font-family:'PoiretOne-Regular';}
	.st4{font-size:16.649px;}
	.st5{fill:#50BFE8;}
	.st6{fill:#088E52;}
	.st7{fill:#F9E137;}
	.st8{fill:#E574AB;}
	.st9{fill:#DB191F;}
	.st10{fill:#DE5B11;}
</style>
<path class="st0" d="M22.73,102.57H22.7c-10.33,0-18.71-8.38-18.71-18.71V24.35c0-10.33,8.38-18.71,18.71-18.71h0.03V102.57z"/>
<path class="st0" d="M71.21,54.1c0,26.77-21.72,48.48-48.51,48.48s-1.58-49.31-1.58-49.31S-3.67,5.6,23.12,5.6
	S71.21,27.32,71.21,54.1z"/>
<path class="st1" d="M5.14,53.64c-0.19,3.67,1.14,5.11,3.22,11.5c1.15,3.53-4.65,5.63-0.16,12.16c3.45,5.03-0.86,9.34,2.69,14.4
	c3.11,4.44,9.16,1.01,12.55,5.88c1.88,2.71,5.03,3.22,8.49,2.83c3.87-0.44,5.19-4.4,10-9.51c6.15-6.54,10.55-0.23,15.5-6.47
	c3.9-4.91,1.11-8.64,6.07-14.81c3.44-4.29,5.45-4.5,6.33-7.77c1.13-4.2-1.21-9.06-5.36-18.08c-5.72-12.45-1.49-11.93-5.48-17.24
	c-5.99-7.99-9.15-2.48-17.24-11.42c-6.41-7.08-10.3-6.65-13.67-7.1c-0.53-0.07-5.06-0.46-7.81,2c-0.75,0.67-3.82,1.01-5.35,3.58
	c-2.2,3.72-6.32,7.15-7.17,7.84c-3.7,3.02-4.52,9.62-1.57,13.97c0.31,0.45,1.57,1.97,1.99,4.29c0,0,0.13,0.7,0.14,1.42
	C8.36,45.13,5.39,48.72,5.14,53.64z"/>
<g>
	<path class="st2" d="M30.45,67.05L30.45,67.05c-3.12,0-5.64-2.52-5.64-5.63v-17.9c0-3.11,2.52-5.63,5.63-5.63h0.01V67.05z"/>
	<path class="st2" d="M45.03,52.47c0,8.05-6.53,14.58-14.59,14.58s-0.47-14.84-0.47-14.84s-7.46-14.34,0.6-14.34
		S45.03,44.42,45.03,52.47z"/>
</g>
<text transform="matrix(1 0 0 1 78.2927 70.5399)" class="st1 st3 st4">ONUTS</text>
<text transform="matrix(1 0 0 1 81.239 54.0604)" class="st3 st4">ILAS</text>
<circle id="k4_2_" class="st2" cx="4.74" cy="16.58" r="4.59"/>
<circle id="k3_2_" class="st2" cx="24" cy="5.06" r="4.59"/>
<circle id="k2_2_" class="st2" cx="18.83" cy="9.21" r="5.75"/>
<circle id="k1_2_" class="st2" cx="11.6" cy="14.21" r="5.61"/>
<rect id="r1_Ausbesserung_2_" x="10.72" y="6.79" class="st2" width="5" height="3.91"/>
<circle class="st0" cx="7.54" cy="10.69" r="1.35"/>
<circle class="st0" cx="15.32" cy="8.89" r="1.14"/>
<circle class="st0" cx="20.51" cy="3.67" r="1.35"/>
<circle class="st0" cx="12.69" cy="4.59" r="0.83"/>
<circle class="st0" cx="12.66" cy="14.66" r="0.83"/>
<circle class="st0" cx="6.02" cy="16.87" r="1.14"/>
<rect x="12.71" y="23.98" transform="matrix(0.946 0.3241 -0.3241 0.946 10.201 -3.019)" class="st2" width="2.91" height="10.27"/>
<rect x="26.3" y="26.58" transform="matrix(0.7682 0.6402 -0.6402 0.7682 26.7353 -10.4203)" class="st5" width="2.91" height="10.27"/>
<rect x="14.69" y="45.37" transform="matrix(0.7486 0.663 -0.663 0.7486 37.5483 1.9921)" class="st6" width="2.91" height="10.27"/>
<rect x="29.92" y="14.68" transform="matrix(-0.6064 0.7952 -0.7952 -0.6064 66.1627 6.8752)" class="st7" width="2.91" height="10.27"/>
<rect x="58.55" y="54.46" class="st8" width="2.91" height="10.27"/>
<rect x="43.72" y="25.37" transform="matrix(-0.7661 0.6427 -0.6427 -0.7661 99.3902 24.8438)" class="st9" width="2.91" height="10.27"/>
<rect x="51.88" y="41.12" transform="matrix(0.9662 0.2577 -0.2577 0.9662 13.719 -12.1812)" class="st10" width="2.91" height="10.27"/>
<rect x="50.9" y="67.33" transform="matrix(0.2548 0.967 -0.967 0.2548 109.0931 3.3698)" class="st5" width="2.91" height="10.27"/>
<rect x="16.47" y="69.23" transform="matrix(-0.6064 0.7952 -0.7952 -0.6064 87.9327 105.1971)" class="st7" width="2.91" height="10.27"/>
<rect x="25.55" y="81.07" transform="matrix(0.946 0.3241 -0.3241 0.946 29.3966 -4.1013)" class="st2" width="2.91" height="10.27"/>
<rect x="35.44" y="69.57" transform="matrix(-0.5437 0.8393 -0.8393 -0.5437 119.6596 84.3593)" class="st9" width="2.91" height="10.27"/>
</svg>
