<svg id="DilasDonuts_-_Logo" data-name="DilasDonuts - Logo" xmlns="http://www.w3.org/2000/svg" viewBox="0 0 129.21 102.1"><defs><style>.cls-1{fill:#f8cb88;}.cls-2{fill:#f18b96;}.cls-3{fill:#fff;}.cls-4{fill:#1d1d1b;}.cls-5{fill:#50bfe8;}.cls-6{fill:#088e52;}.cls-7{fill:#f9e137;}.cls-8{fill:#e574ab;}.cls-9{fill:#db191f;}.cls-10{fill:#de5b11;}</style></defs><path class="cls-1" d="M22.55,5.17h0a0,0,0,0,1,0,0V102.1a0,0,0,0,1,0,0h0A18.71,18.71,0,0,1,3.84,83.39V23.88A18.71,18.71,0,0,1,22.55,5.17Z"/><path class="cls-1" d="M136.68,113.8a48.49,48.49,0,0,1-48.51,48.47c-26.8,0-1.58-49.31-1.58-49.31S61.8,65.3,88.59,65.3A48.15,48.15,0,0,1,136.68,113.8Z" transform="translate(-65.62 -60.17)"/><path class="cls-2" d="M70.61,113.34c-.19,3.67,1.14,5.12,3.22,11.5,1.15,3.53-4.65,5.63-.17,12.16,3.46,5-.85,9.34,2.7,14.4,3.11,4.44,9.16,1,12.55,5.87,1.88,2.71,5,3.23,8.49,2.83,3.87-.43,5.19-4.39,10-9.51,6.15-6.54,10.55-.23,15.49-6.47,3.9-4.91,1.12-8.63,6.07-14.81,3.44-4.29,5.45-4.5,6.33-7.77,1.13-4.2-1.21-9.06-5.36-18.08-5.73-12.45-1.49-11.93-5.48-17.25-6-8-9.15-2.48-17.24-11.42-6.41-7.07-10.31-6.65-13.67-7.09-.54-.08-5.06-.47-7.81,2-.75.67-3.82,1-5.35,3.58a34.58,34.58,0,0,1-7.16,7.84c-3.7,3-4.53,9.61-1.58,14a10.21,10.21,0,0,1,2,4.3,10.45,10.45,0,0,1,.13,1.42C73.83,104.83,70.86,108.42,70.61,113.34Z" transform="translate(-65.62 -60.17)"/><path class="cls-3" d="M30.29,37.42h0a0,0,0,0,1,0,0V66.58a0,0,0,0,1,0,0h0A5.63,5.63,0,0,1,24.66,61V43.05a5.63,5.63,0,0,1,5.63-5.63Z"/><path class="cls-3" d="M110.5,112.17a14.59,14.59,0,0,1-14.59,14.59c-8.06,0-.48-14.84-.48-14.84S88,97.58,96,97.58A14.48,14.48,0,0,1,110.5,112.17Z" transform="translate(-65.62 -60.17)"/><path class="cls-2" d="M147.79,129.66a6.68,6.68,0,0,1-2.37-2.44,6.49,6.49,0,0,1-.88-3.27,6.32,6.32,0,0,1,.89-3.24,6.76,6.76,0,0,1,2.38-2.4,6.36,6.36,0,0,1,6.49,0,6.57,6.57,0,0,1,2.36,2.38,6.42,6.42,0,0,1,.87,3.26,6.62,6.62,0,0,1-3.24,5.73,6.26,6.26,0,0,1-6.5,0Zm6.21-.39a6.19,6.19,0,0,0,3-5.29,6,6,0,0,0-.8-3,6.05,6.05,0,0,0-2.16-2.22,5.81,5.81,0,0,0-6,0A6.16,6.16,0,0,0,145.9,121a6,6,0,0,0-.81,3,6,6,0,0,0,.81,3.06,6.11,6.11,0,0,0,2.17,2.23,5.77,5.77,0,0,0,5.93,0Z" transform="translate(-65.62 -60.17)"/><path class="cls-2" d="M160.28,119v11.24h-.48V117.57L169,129V117.76h.48v12.67Z" transform="translate(-65.62 -60.17)"/><path class="cls-2" d="M173.91,130.12a3.35,3.35,0,0,1-1.33-1.31,4,4,0,0,1-.48-2v-9.07h.55v9a3.55,3.55,0,0,0,.41,1.74,2.81,2.81,0,0,0,1.15,1.14,3.24,3.24,0,0,0,1.62.4,3.35,3.35,0,0,0,1.62-.39,2.79,2.79,0,0,0,1.13-1.13,3.5,3.5,0,0,0,.41-1.76v-9h.55v9a4.13,4.13,0,0,1-.46,2,3.33,3.33,0,0,1-1.31,1.32,4,4,0,0,1-1.92.46A4.09,4.09,0,0,1,173.91,130.12Z" transform="translate(-65.62 -60.17)"/><path class="cls-2" d="M184.09,118.24h-2.88v-.48h6.27v.48h-2.84v12h-.55Z" transform="translate(-65.62 -60.17)"/><path class="cls-2" d="M187.87,128.76v-.9a3.6,3.6,0,0,0,1.3,1.57,3.71,3.71,0,0,0,2.06.56,3.36,3.36,0,0,0,1.54-.36,2.85,2.85,0,0,0,1.54-2.57,3.13,3.13,0,0,0-.27-1.35,3.44,3.44,0,0,0-.88-1.09,14.73,14.73,0,0,0-1.78-1.24l-.53-.33a14.16,14.16,0,0,1-1.19-.8,3.75,3.75,0,0,1-.78-.81,2.66,2.66,0,0,1-.43-1.5,2.2,2.2,0,0,1,.73-1.77,2.77,2.77,0,0,1,1.87-.63,3,3,0,0,1,2.43,1.13v.85a3,3,0,0,0-1-1.1A2.87,2.87,0,0,0,191,118a2,2,0,0,0-1.4.52,1.79,1.79,0,0,0-.56,1.38,2.16,2.16,0,0,0,.52,1.46,7.18,7.18,0,0,0,1.77,1.32,16.39,16.39,0,0,1,2.39,1.63,3.36,3.36,0,0,1,.87,1.22,3.9,3.9,0,0,1,.28,1.48,3.38,3.38,0,0,1-.49,1.81,3.12,3.12,0,0,1-1.33,1.21,4.26,4.26,0,0,1-1.91.43A3.67,3.67,0,0,1,187.87,128.76Z" transform="translate(-65.62 -60.17)"/><path class="cls-4" d="M148.11,101.28h.55v12.48h-.55Z" transform="translate(-65.62 -60.17)"/><path class="cls-4" d="M151.37,101.28h.55v12h3.86v.48h-4.41Z" transform="translate(-65.62 -60.17)"/><path class="cls-4" d="M169.13,113.76h-.58L166.19,109h-6.63l-2.31,4.76h-.59L162.89,101ZM166,108.52l-3.13-6.34-3.07,6.34Z" transform="translate(-65.62 -60.17)"/><path class="cls-4" d="M170.37,112.28v-.9a3.6,3.6,0,0,0,1.3,1.57,3.73,3.73,0,0,0,2.06.56,3.36,3.36,0,0,0,1.54-.36,2.85,2.85,0,0,0,1.54-2.57,3,3,0,0,0-.27-1.34,3.23,3.23,0,0,0-.88-1.1,14.73,14.73,0,0,0-1.78-1.24l-.53-.33a10.72,10.72,0,0,1-1.18-.8,3.79,3.79,0,0,1-.79-.81,2.66,2.66,0,0,1-.43-1.5,2.22,2.22,0,0,1,.73-1.77,2.77,2.77,0,0,1,1.87-.63,3,3,0,0,1,2.43,1.13V103a3,3,0,0,0-1-1.1,2.87,2.87,0,0,0-1.47-.4,2,2,0,0,0-1.4.52,1.79,1.79,0,0,0-.56,1.38,2.16,2.16,0,0,0,.52,1.46,7.08,7.08,0,0,0,1.78,1.32,16.78,16.78,0,0,1,2.38,1.63,3.36,3.36,0,0,1,.87,1.22,3.9,3.9,0,0,1,.28,1.48,3.29,3.29,0,0,1-.49,1.81,3.12,3.12,0,0,1-1.33,1.21,4.23,4.23,0,0,1-1.91.43A3.65,3.65,0,0,1,170.37,112.28Z" transform="translate(-65.62 -60.17)"/><circle id="k4" class="cls-3" cx="4.59" cy="16.11" r="4.59"/><circle id="k3" class="cls-3" cx="23.85" cy="4.59" r="4.59"/><circle id="k2" class="cls-3" cx="18.68" cy="8.74" r="5.75"/><circle id="k1" class="cls-3" cx="11.45" cy="13.74" r="5.61"/><rect id="r1_Ausbesserung" data-name="r1 Ausbesserung" class="cls-3" x="10.57" y="6.32" width="5" height="3.91"/><circle class="cls-1" cx="7.4" cy="10.22" r="1.35"/><circle class="cls-1" cx="15.17" cy="8.42" r="1.14"/><circle class="cls-1" cx="20.36" cy="3.2" r="1.35"/><circle class="cls-1" cx="12.54" cy="4.12" r="0.83"/><circle class="cls-1" cx="12.51" cy="14.19" r="0.83"/><circle class="cls-1" cx="5.87" cy="16.4" r="1.14"/><rect class="cls-3" x="78.18" y="83.68" width="2.91" height="10.27" transform="translate(-32.53 -81.19) rotate(18.91)"/><rect class="cls-5" x="91.77" y="86.28" width="2.91" height="10.27" transform="translate(14.51 -98.67) rotate(39.81)"/><rect class="cls-6" x="80.16" y="105.08" width="2.91" height="10.27" transform="translate(27.97 -86.58) rotate(41.53)"/><rect class="cls-7" x="95.39" y="74.38" width="2.91" height="10.27" transform="translate(153.19 -9.45) rotate(127.33)"/><rect class="cls-8" x="58.4" y="53.98" width="2.91" height="10.27"/><rect class="cls-9" x="109.19" y="85.07" width="2.91" height="10.27" transform="translate(187.77 28.04) rotate(140.01)"/><rect class="cls-10" x="117.35" y="100.82" width="2.91" height="10.27" transform="translate(-34.31 -87.21) rotate(14.93)"/><rect class="cls-5" x="116.37" y="127.03" width="2.91" height="10.27" transform="translate(149.99 -75.62) rotate(75.24)"/><rect class="cls-7" x="81.94" y="128.93" width="2.91" height="10.27" transform="translate(174.96 88.87) rotate(127.33)"/><rect class="cls-3" x="91.02" y="140.77" width="2.91" height="10.27" transform="translate(-13.34 -82.27) rotate(18.91)"/><rect class="cls-9" x="100.91" y="129.28" width="2.91" height="10.27" transform="translate(205.21 61.4) rotate(122.94)"/></svg>